<svg width="17" height="18" viewBox="0 0 17 18" fill="none" xmlns="http://www.w3.org/2000/svg">
<path opacity="0.5" d="M0.437143 0.0977291C0.126286 0.282301 0.00971429 0.486301 0 0.855443C0 1.1663 0.242857 1.42859 3.66229 4.85773L7.33429 8.52973L3.66229 12.2017C0.242857 15.6309 0 15.8932 0 16.204C0 16.3886 0.0582857 16.6217 0.136 16.7092C0.301143 16.9326 0.738286 17.088 1.01029 17.02C1.12686 16.9909 2.86571 15.3297 4.86686 13.3286L8.5 9.69544L12.1623 13.3577C15.6497 16.8452 15.844 17.02 16.184 17.02C16.6309 17.02 17 16.6412 17 16.1749C17 15.9029 16.6114 15.4852 13.3377 12.2017L9.66571 8.52973L13.3377 4.85773C16.6114 1.5743 17 1.15659 17 0.884586C17 0.418301 16.6309 0.0394434 16.184 0.0394434C15.844 0.0394434 15.6497 0.214301 12.1623 3.70173L8.5 7.36401L4.85714 3.72116C1.06857 -0.0576994 0.913143 -0.193699 0.437143 0.0977291Z" fill="white"/>
</svg>
