<svg width="13" height="13" viewBox="0 0 13 13" fill="none" xmlns="http://www.w3.org/2000/svg">
<path d="M7.84565 0.972178C7.05177 1.11526 6.35251 1.64605 5.98788 2.37993C5.7571 2.84148 5.66248 3.42997 5.73864 3.9123C5.75249 3.99307 5.76172 4.0623 5.7571 4.06461C5.75249 4.06692 5.66248 4.05999 5.55402 4.04846C5.29785 4.02307 4.87091 4.0623 4.61013 4.13615C3.71241 4.39693 3.0293 5.1008 2.7916 6.01007C2.71313 6.31931 2.69467 6.77626 2.74775 7.07627C2.8516 7.63244 3.06853 8.06862 3.4447 8.46094C3.54163 8.56248 3.61779 8.65018 3.61317 8.65479C3.60856 8.65941 3.5047 8.71018 3.38239 8.77018C2.94391 8.9825 2.57236 9.2502 2.20542 9.61483C1.4277 10.3902 0.96845 11.4057 0.922294 12.4603L0.908447 12.7534L1.37924 12.7488L1.85002 12.7419L1.85464 12.6034C1.90541 11.3526 2.64621 10.2056 3.77241 9.64022C4.22243 9.41405 4.78783 9.26866 5.21939 9.26866C5.30016 9.26866 5.47555 9.25712 5.60479 9.24328C6.48867 9.14635 7.26639 8.60633 7.67256 7.80322C7.76026 7.62552 7.87334 7.25628 7.91027 7.0255C7.93796 6.8478 7.92873 6.28701 7.89642 6.18316L7.88026 6.13238L8.1872 6.14392C8.35798 6.15085 8.61645 6.17162 8.76415 6.19008C9.56264 6.28701 10.2665 6.65164 10.8596 7.27705L11.1089 7.54013L11.425 7.18935C11.5981 6.9978 11.7389 6.83164 11.7389 6.82241C11.7389 6.7878 11.2473 6.30316 11.0789 6.16931C10.8296 5.97315 10.5458 5.79545 10.2642 5.6616L10.0127 5.53928L10.1742 5.37774C10.5527 5.00619 10.795 4.53771 10.8988 3.98384C10.9542 3.67921 10.9358 3.19919 10.855 2.89456C10.5965 1.91375 9.83496 1.1868 8.84953 0.983717C8.58875 0.930638 8.10874 0.923715 7.84565 0.972178ZM8.72953 1.92991C9.29955 2.0753 9.75188 2.51147 9.92727 3.0838C9.94804 3.15303 9.97112 3.3215 9.97804 3.45535C9.99419 3.77152 9.95035 3.98845 9.80496 4.28385C9.71726 4.46847 9.66649 4.5354 9.50264 4.69925C9.27417 4.92541 9.08262 5.04542 8.81953 5.12619C8.21028 5.31774 7.53871 5.13773 7.10716 4.66694C6.24635 3.72536 6.70791 2.22069 7.9495 1.91837C8.15258 1.86991 8.5126 1.87452 8.72953 1.92991ZM5.76172 5.04773C6.30405 5.19773 6.73099 5.60621 6.911 6.14623C6.96407 6.30547 6.971 6.36316 6.971 6.64933C6.971 6.93549 6.96407 6.99319 6.911 7.15242C6.67791 7.85168 6.04788 8.31093 5.32324 8.30863C4.59629 8.30632 3.98242 7.86091 3.7401 7.15704C3.6824 6.99088 3.67548 6.94011 3.67317 6.66087C3.67317 6.31701 3.69856 6.19239 3.83241 5.92238C4.07473 5.4262 4.54321 5.08696 5.104 4.99695C5.27016 4.97157 5.57017 4.99465 5.76172 5.04773Z" fill="white"/>
<path d="M10.4488 9.61283C9.56951 10.5913 8.84486 11.3921 8.83563 11.3921C8.8264 11.3921 8.42023 11.0113 7.93329 10.5475C7.44635 10.0859 7.03556 9.70745 7.02171 9.71207C6.99171 9.71899 6.38477 10.3536 6.38477 10.3767C6.38477 10.4044 8.8564 12.7422 8.88871 12.7422C8.92794 12.7422 12.7358 8.50509 12.7266 8.47279C12.7219 8.45894 12.6066 8.34586 12.4658 8.21893C12.3273 8.09431 12.175 7.95584 12.1288 7.9143L12.0458 7.83584L10.4488 9.61283Z" fill="white"/>
</svg>
