<svg width="57" height="64" viewBox="0 0 57 64" fill="none" xmlns="http://www.w3.org/2000/svg">
<path d="M46.3811 49.2868L48.7038 52.3055L48.541 52.2843L49.7651 51.3424L49.9917 51.637L47.3917 53.6375L47.1651 53.343L48.3845 52.4047L48.3679 52.564L46.0452 49.5453L46.3811 49.2868Z" fill="white"/>
<path d="M44.2001 50.8913L46.0823 54.4936L44.734 55.1981C44.4287 55.3576 44.1402 55.445 43.8687 55.4602C43.5989 55.4789 43.3573 55.4261 43.1439 55.3018C42.9288 55.1827 42.7531 54.9928 42.6169 54.732C42.4843 54.4782 42.4296 54.2272 42.4528 53.9792C42.4745 53.7364 42.5691 53.5079 42.7367 53.2937C42.9042 53.0795 43.1407 52.8926 43.446 52.7331L44.5833 52.1388L44.5076 52.4077L43.8193 51.0903L44.2001 50.8913ZM44.4915 52.3768L44.7581 52.4733L43.6311 53.0622C43.2709 53.2504 43.0385 53.4701 42.9339 53.7213C42.8277 53.9777 42.8489 54.2483 42.9977 54.5331C43.1483 54.8212 43.3592 54.9949 43.6303 55.0542C43.898 55.1152 44.212 55.0516 44.5722 54.8633L45.6992 54.2745L45.6235 54.5433L44.4915 52.3768Z" fill="white"/>
<path d="M40.4947 55.104L38.4398 55.7306L38.3331 55.3807L40.388 54.7541L40.4947 55.104ZM39.9032 53.3236L37.5651 54.0367L37.4567 53.6812L40.2058 52.8429L41.3914 56.7305L38.7256 57.5435L38.6172 57.188L40.872 56.5004L39.9032 53.3236Z" fill="white"/>
<path d="M33.7708 58.309L33.3492 58.3529L32.9286 54.3103L33.3502 54.2665L33.7708 58.309ZM35.8797 54.0033L36.307 53.9588L36.7276 58.0014L36.3003 58.0458L35.8797 54.0033ZM33.5038 56.136L36.1199 55.8638L36.159 56.2392L33.5429 56.5114L33.5038 56.136Z" fill="white"/>
<path d="M28.736 54.2629L28.361 57.7323L30.2948 57.9413L30.4355 56.9637C30.4799 56.6609 30.5308 56.3705 30.5881 56.0925C30.6411 55.8179 30.7067 55.5719 30.7847 55.3545C30.8584 55.1406 30.947 54.9691 31.0505 54.8401C31.1501 54.7107 31.2705 54.642 31.4115 54.6339L31.8697 54.771C31.7166 54.7467 31.5836 54.7887 31.4707 54.8972C31.3539 55.0053 31.2569 55.1642 31.1797 55.3739C31.0987 55.5831 31.0291 55.8306 30.971 56.1163C30.9128 56.4021 30.8599 56.7117 30.8122 57.0453L30.6244 58.3507L27.8997 58.0562L28.3146 54.2174L28.736 54.2629ZM32.1577 53.5115L32.0141 54.7866L27.6904 54.3193L27.8283 53.0435L28.2266 53.0866L28.1286 53.9929L31.6557 54.3741L31.7594 53.4684L32.1577 53.5115Z" fill="white"/>
<path d="M24.9876 54.7278L24.8834 55.005L22.1659 53.9834L22.2701 53.7062L24.9876 54.7278Z" fill="white"/>
<path d="M19.7589 50.7266L17.6725 53.9132L17.639 53.7524L18.9311 54.5984L18.7276 54.9093L15.983 53.1123L16.1865 52.8015L17.4738 53.6443L17.3179 53.681L19.4043 50.4944L19.7589 50.7266Z" fill="white"/>
<path d="M17.5249 49.1992L14.742 52.1614L13.6333 51.1198C13.3822 50.8839 13.2048 50.6403 13.1011 50.3888C12.9948 50.1402 12.9652 49.8947 13.0124 49.6522C13.0542 49.41 13.1757 49.1816 13.3772 48.9672C13.5733 48.7584 13.7923 48.6243 14.0341 48.5647C14.2705 48.5053 14.5174 48.5195 14.7748 48.6073C15.0323 48.6951 15.2865 48.8569 15.5376 49.0928L16.4728 49.9714L16.194 49.9883L17.2117 48.905L17.5249 49.1992ZM16.2179 49.963L16.2144 50.2465L15.2876 49.3758C14.9914 49.0976 14.7075 48.9503 14.4359 48.9342C14.1588 48.9182 13.9103 49.0272 13.6903 49.2614C13.4677 49.4984 13.373 49.7546 13.4062 50.0302C13.4367 50.3031 13.6 50.5787 13.8962 50.8569L14.8229 51.7276L14.5442 51.7445L16.2179 49.963Z" fill="white"/>
<path d="M12.3173 47.0878L11.0452 45.3567L11.3399 45.1401L12.6121 46.8712L12.3173 47.0878ZM13.8011 45.9398L12.3535 43.9701L12.653 43.75L14.3549 46.066L11.0798 48.4728L9.42944 46.227L9.72888 46.007L11.1248 47.9065L13.8011 45.9398Z" fill="white"/>
<path d="M7.10454 41.8945L6.92393 41.5111L10.6008 39.7792L10.7815 40.1627L7.10454 41.8945ZM11.8651 42.4634L12.0482 42.8521L8.37128 44.5839L8.18819 44.1952L11.8651 42.4634ZM9.0675 40.925L10.1883 43.3045L9.84684 43.4653L8.72607 41.0859L9.0675 40.925Z" fill="white"/>
<path d="M9.26694 35.8787L5.86996 36.6771L6.315 38.5706L7.28385 38.3787C7.58419 38.32 7.875 38.2715 8.15627 38.2333C8.43289 38.1921 8.68668 38.1722 8.91763 38.1736C9.14393 38.1721 9.33509 38.1987 9.49111 38.2535C9.64625 38.3045 9.75106 38.3952 9.80556 38.5256L9.82838 39.0033C9.80049 38.8508 9.71662 38.7393 9.57678 38.6688C9.43606 38.5945 9.25399 38.5558 9.03057 38.5526C8.80627 38.5457 8.54972 38.5623 8.26091 38.6023C7.9721 38.6424 7.66245 38.6953 7.33196 38.761L6.03828 39.0174L5.41124 36.3495L9.16996 35.4661L9.26694 35.8787ZM11.1121 38.8567L9.86159 39.1446L8.86656 34.9111L10.1157 34.6175L10.2074 35.0075L9.31996 35.2161L10.1317 38.6696L11.0204 38.4667L11.1121 38.8567Z" fill="white"/>
<path d="M7.55869 32.3351L7.26265 32.3281L7.33077 29.4258L7.62681 29.4327L7.55869 32.3351Z" fill="white"/>
<path d="M9.58121 26.1361L5.88507 25.2162L6.0258 25.1315L5.65279 26.6303L5.29219 26.5405L6.08449 23.3571L6.44509 23.4469L6.07348 24.94L5.98744 24.8049L9.68358 25.7248L9.58121 26.1361Z" fill="white"/>
<path d="M10.2837 23.506L6.57043 21.8536L7.1889 20.4638C7.32897 20.149 7.50064 19.9013 7.70391 19.7206C7.90365 19.5384 8.12576 19.4296 8.37024 19.3943C8.61275 19.354 8.8684 19.3936 9.13717 19.5132C9.39887 19.6296 9.59766 19.7923 9.73355 20.001C9.86748 20.2047 9.93536 20.4425 9.9372 20.7144C9.93904 20.9864 9.86992 21.2798 9.72986 21.5945L9.20817 22.7669L9.1004 22.5092L10.4584 23.1135L10.2837 23.506ZM9.13223 22.5233L8.86336 22.6134L9.38033 21.4517C9.54558 21.0804 9.59112 20.7638 9.51696 20.502C9.44084 20.2351 9.25601 20.0364 8.96248 19.9057C8.66542 19.7735 8.39227 19.7685 8.14304 19.8906C7.89538 20.0092 7.68893 20.2542 7.52368 20.6255L7.00671 21.7872L6.89895 21.5295L9.13223 22.5233Z" fill="white"/>
<path d="M10.566 17.879L11.7817 16.1078L12.0833 16.3148L10.8676 18.086L10.566 17.879ZM12.1385 18.902L13.5218 16.8867L13.8282 17.097L12.2017 19.4666L8.85078 17.1665L10.428 14.8687L10.7343 15.079L9.4003 17.0226L12.1385 18.902Z" fill="white"/>
<path d="M13.6666 11.3186L13.9679 11.0205L16.8268 13.9093L16.5256 14.2075L13.6666 11.3186ZM14.718 15.9964L14.4126 16.2986L11.5536 13.4097L11.859 13.1075L14.718 15.9964ZM15.2352 12.8459L13.3657 14.696L13.1003 14.4278L14.9698 12.5776L15.2352 12.8459Z" fill="white"/>
<path d="M20.1648 11.2668L18.2899 8.32369L16.6494 9.36877L17.1504 10.22C17.3049 10.4841 17.4466 10.7426 17.5756 10.9955C17.7057 11.243 17.8083 11.476 17.8832 11.6945C17.9593 11.9076 17.9973 12.0969 17.997 12.2622C18.0001 12.4255 17.9491 12.5544 17.844 12.6488L17.4006 12.8281C17.5353 12.7514 17.6129 12.6354 17.6333 12.4802C17.657 12.3228 17.6335 12.1382 17.5627 11.9262C17.4952 11.7122 17.3949 11.4755 17.2618 11.2161C17.1286 10.9567 16.9765 10.6819 16.8053 10.3916L16.1364 9.25502L18.4477 7.78255L20.5223 11.039L20.1648 11.2668ZM17.9627 13.9914L17.2782 12.9061L20.946 10.5695L21.6354 11.6517L21.2975 11.8669L20.8078 11.0981L17.8157 13.0042L18.3006 13.7762L17.9627 13.9914Z" fill="white"/>
<path d="M22.8055 8.53042L22.7137 8.24888L25.4739 7.34917L25.5657 7.63071L22.8055 8.53042Z" fill="white"/>
<path d="M29.4517 8.35713L29.1014 4.56437L29.2278 4.66933L27.6898 4.81136L27.6557 4.44133L30.9223 4.13965L30.9565 4.50968L29.4243 4.65117L29.5235 4.5254L29.8738 8.31815L29.4517 8.35713Z" fill="white"/>
<path d="M32.1841 8.14537L32.5127 4.09431L34.029 4.21731C34.3723 4.24516 34.663 4.32505 34.9008 4.45696C35.139 4.58502 35.3152 4.75854 35.4295 4.97752C35.5479 5.19296 35.5952 5.44729 35.5715 5.74051C35.5483 6.02601 35.4607 6.26746 35.3088 6.46484C35.161 6.65868 34.9592 6.80153 34.7032 6.89339C34.4472 6.98524 34.1475 7.01724 33.8041 6.98939L32.5251 6.88564L32.7325 6.69858L32.6124 8.18011L32.1841 8.14537ZM32.7297 6.7333L32.5556 6.50947L33.823 6.61228C34.2281 6.64514 34.5419 6.58322 34.7643 6.4265C34.9909 6.26624 35.1172 6.02599 35.1432 5.70577C35.1695 5.38168 35.0837 5.1223 34.8859 4.92761C34.692 4.73323 34.3925 4.61961 33.9874 4.58675L32.7199 4.48394L32.9274 4.29688L32.7297 6.7333Z" fill="white"/>
<path d="M37.4653 6.51715L39.54 7.07501L39.445 7.42825L37.3704 6.87039L37.4653 6.51715ZM37.0232 8.34029L39.3838 8.97505L39.2873 9.3339L36.5118 8.58757L37.5672 4.66262L40.2586 5.38634L40.1621 5.74519L37.8856 5.13305L37.0232 8.34029Z" fill="white"/>
<path d="M44.9369 7.3858L45.3169 7.57363L43.5157 11.2171L43.1357 11.0293L44.9369 7.3858ZM40.856 9.90221L40.4708 9.7118L42.272 6.06835L42.6572 6.25876L40.856 9.90221ZM44.0033 9.36607L41.6454 8.20044L41.8127 7.86211L44.1705 9.02775L44.0033 9.36607Z" fill="white"/>
<path d="M46.9565 13.4056L49.1152 10.6639L47.5869 9.46064L46.9489 10.2146C46.7506 10.4477 46.5535 10.6669 46.3574 10.8721C46.1667 11.0767 45.9807 11.2505 45.7992 11.3933C45.6232 11.5356 45.4571 11.6339 45.3009 11.6883C45.1478 11.7451 45.0093 11.7395 44.8855 11.6716L44.5698 11.3122C44.6867 11.4141 44.8218 11.449 44.9751 11.417C45.1314 11.3873 45.2979 11.3041 45.4746 11.1673C45.6543 11.033 45.8446 10.8601 46.0455 10.6487C46.2464 10.4374 46.4555 10.203 46.673 9.94563L47.5248 8.9388L49.6781 10.6341L47.2895 13.6678L46.9565 13.4056ZM43.6574 12.227L44.4558 11.2224L47.8727 13.9127L47.0789 14.9209L46.7641 14.673L47.3281 13.9568L44.5407 11.7622L43.9722 12.4749L43.6574 12.227Z" fill="white"/>
</svg>
