<svg width="58" height="54" viewBox="0 0 58 54" fill="none" xmlns="http://www.w3.org/2000/svg">
<line x1="1" y1="1" x2="58" y2="1" stroke="#E0DFDD" stroke-width="2"/>
<line x1="1" y1="16" x2="58" y2="16" stroke="#E0DFDD" stroke-width="2"/>
<line x1="1" y1="31.1619" x2="41" y2="31.1619" stroke="#00CC99" stroke-width="1.67628"/>
<path d="M0.590837 51L0.590837 44.9228H1.16057L3.54924 50.0336L5.92525 44.9228H6.50342L6.50342 50.9958H5.91259V46.3071L3.74759 51H3.34667L1.18589 46.3071L1.18589 51H0.590837ZM9.78527 51.1266C9.34074 51.1266 8.95529 51.0281 8.62892 50.8312C8.30537 50.6342 8.05356 50.3571 7.87349 49.9998C7.69343 49.6425 7.6034 49.2233 7.6034 48.7422C7.6034 48.2442 7.69202 47.8137 7.86927 47.4508C8.04652 47.0878 8.29552 46.8079 8.61626 46.6109C8.93981 46.414 9.32104 46.3155 9.75995 46.3155C10.2101 46.3155 10.5942 46.4196 10.9121 46.6278C11.23 46.8332 11.4706 47.1286 11.6337 47.5141C11.7969 47.8995 11.8715 48.3595 11.8574 48.8941H11.2244V48.6746C11.2131 48.0838 11.0851 47.6379 10.8403 47.3368C10.5984 47.0358 10.2439 46.8852 9.77683 46.8852C9.28728 46.8852 8.91168 47.0442 8.65002 47.3621C8.39118 47.6801 8.26176 48.133 8.26176 48.7211C8.26176 49.295 8.39118 49.741 8.65002 50.0589C8.91168 50.374 9.28165 50.5316 9.75995 50.5316C10.0863 50.5316 10.3705 50.457 10.6124 50.3079C10.8572 50.1559 11.0499 49.9379 11.1906 49.6537L11.7688 49.8774C11.5887 50.2741 11.3229 50.5822 10.9712 50.8016C10.6223 51.0183 10.227 51.1266 9.78527 51.1266ZM8.0423 48.8941L8.0423 48.375H11.524L11.524 48.8941H8.0423ZM12.9586 51L12.9586 46.4421H13.579V48.4214H16.1491V46.4421H16.7695V51H16.1491V49.0165H13.579V51H12.9586ZM21.7057 51.1266C21.3033 51.1266 20.9531 51.0408 20.6548 50.8692C20.3566 50.6947 20.1188 50.4514 19.9416 50.1391C19.7672 49.824 19.6617 49.454 19.6251 49.0291H18.7346V51H18.1142V46.4421H18.7346V48.413H19.6209C19.6574 47.9825 19.7643 47.6111 19.9416 47.2988C20.1217 46.9837 20.3608 46.7418 20.659 46.5729C20.9601 46.4013 21.3104 46.3155 21.7099 46.3155C22.1629 46.3155 22.5497 46.4182 22.8705 46.6236C23.194 46.829 23.4402 47.1117 23.609 47.4719C23.7806 47.832 23.8664 48.2456 23.8664 48.7126C23.8664 49.1909 23.7792 49.6115 23.6048 49.9745C23.4332 50.3374 23.1856 50.6202 22.862 50.8227C22.5413 51.0253 22.1558 51.1266 21.7057 51.1266ZM21.693 50.5316C22.2051 50.5316 22.5849 50.3656 22.8325 50.0336C23.0829 49.6988 23.2081 49.2598 23.2081 48.7168C23.2081 48.1626 23.0815 47.7237 22.8283 47.4001C22.5779 47.0737 22.2008 46.9106 21.6972 46.9106C21.2161 46.9106 20.8475 47.0709 20.5915 47.3917C20.3355 47.7096 20.2075 48.1499 20.2075 48.7126C20.2075 49.2641 20.3327 49.7058 20.5831 50.0378C20.8363 50.367 21.2063 50.5316 21.693 50.5316Z" fill="#767676"/>
</svg>
